# xmcd
#
# Track frame offsets:
#	150
#	26029
#	37512
#	46823
#	52210
#	73516
#	90221
#	100761
#	114883
#	123165
#	139662
#	163286
#	188067
#
# Disc length: 2906 seconds
#
# Revision: 1
# Processed by: cddbd v1.5.1PL2 Copyright (c) Steve Scherf et al.
# Submitted via: EasyCDDAExtractor 9.0.0.1
#
DISCID=9e0b580d
DTITLE=David Lee Roth - Waterfest Leach Amphitheater Oshkosh 06-07-06 Disc 2
DYEAR=2006
DGENRE=Hard Rock
TTITLE0=Just A Gigolo - I Ain't Got Nobody
TTITLE1=Unchained
TTITLE2=Summertime Feeling
TTITLE3=Unchained (Reprise)
TTITLE4=Semi-Intoxicated White Boy Blues
TTITLE5=Panama
TTITLE6=Dance The Night Away
TTITLE7=DTNA story
TTITLE8=DTNA (Reprise)
TTITLE9=Ice Cream Man
TTITLE10=Everybody Wants Some
TTITLE11=Ain't Talkin' 'Bout Love
TTITLE12=Jump
EXTD=
EXTT0=
EXTT1=
EXTT2=
EXTT3=
EXTT4=
EXTT5=
EXTT6=
EXTT7=
EXTT8=
EXTT9=
EXTT10=
EXTT11=
EXTT12=
PLAYORDER=
